<?xml version="1.0" encoding="UTF-8"?>
<svg xmlns="http://www.w3.org/2000/svg" viewBox="0 0 64 64">
  <!-- Three Qodeh waves: simplified path of the integral-like marks for Safari pinned-tab.
       Safari renders this as a single-color silhouette using the user's accent color. -->
  <path fill="#000" d="M14 8 C 14 16, 22 28, 14 40, S 22 56, 14 64 L 22 64 C 22 56, 30 44, 22 32, S 30 16, 22 8 Z
                       M30 8 C 30 16, 38 28, 30 40, S 38 56, 30 64 L 38 64 C 38 56, 46 44, 38 32, S 46 16, 38 8 Z
                       M46 8 C 46 16, 54 28, 46 40, S 54 56, 46 64 L 54 64 C 54 56, 62 44, 54 32, S 62 16, 54 8 Z" />
</svg>
